<mxfile host="65bd71144e">
    <diagram id="wotOGiAc1MuDJnwYZiBc" name="Strona-1">
        <mxGraphModel dx="1358" dy="790" grid="1" gridSize="10" guides="1" tooltips="1" connect="1" arrows="1" fold="1" page="1" pageScale="1" pageWidth="1169" pageHeight="827" math="0" shadow="0">
            <root>
                <mxCell id="0"/>
                <mxCell id="1" parent="0"/>
                <mxCell id="3" value="updateModelTemplates" style="shape=trapezoid;perimeter=trapezoidPerimeter;whiteSpace=wrap;html=1;fixedSize=1;" parent="1" vertex="1">
                    <mxGeometry x="240" y="20" width="160" height="60" as="geometry"/>
                </mxCell>
                <mxCell id="6" style="edgeStyle=none;html=1;exitX=0.5;exitY=0;exitDx=0;exitDy=0;" parent="1" source="5" target="3" edge="1">
                    <mxGeometry relative="1" as="geometry"/>
                </mxCell>
                <mxCell id="5" value="model" style="rounded=0;whiteSpace=wrap;html=1;" parent="1" vertex="1">
                    <mxGeometry x="280" y="120" width="80" height="40" as="geometry"/>
                </mxCell>
                <mxCell id="32" style="edgeStyle=orthogonalEdgeStyle;html=1;exitX=0;exitY=0.5;exitDx=0;exitDy=0;entryX=0.5;entryY=1;entryDx=0;entryDy=0;" parent="1" source="7" target="29" edge="1">
                    <mxGeometry relative="1" as="geometry"/>
                </mxCell>
                <mxCell id="38" style="edgeStyle=orthogonalEdgeStyle;html=1;exitX=0.5;exitY=0;exitDx=0;exitDy=0;entryX=1;entryY=0.5;entryDx=0;entryDy=0;" parent="1" source="7" target="5" edge="1">
                    <mxGeometry relative="1" as="geometry"/>
                </mxCell>
                <mxCell id="39" style="edgeStyle=orthogonalEdgeStyle;html=1;exitX=0.5;exitY=0;exitDx=0;exitDy=0;entryX=0;entryY=0.5;entryDx=0;entryDy=0;" parent="1" source="7" target="37" edge="1">
                    <mxGeometry relative="1" as="geometry"/>
                </mxCell>
                <mxCell id="47" style="edgeStyle=orthogonalEdgeStyle;html=1;exitX=1;exitY=0.5;exitDx=0;exitDy=0;entryX=0.5;entryY=1;entryDx=0;entryDy=0;" parent="1" source="7" target="46" edge="1">
                    <mxGeometry relative="1" as="geometry"/>
                </mxCell>
                <mxCell id="7" value="name" style="rounded=0;whiteSpace=wrap;html=1;" parent="1" vertex="1">
                    <mxGeometry x="400" y="560" width="80" height="40" as="geometry"/>
                </mxCell>
                <mxCell id="16" style="edgeStyle=orthogonalEdgeStyle;html=1;exitX=0.5;exitY=0;exitDx=0;exitDy=0;entryX=0;entryY=0.5;entryDx=0;entryDy=0;" parent="1" source="8" target="5" edge="1">
                    <mxGeometry relative="1" as="geometry"/>
                </mxCell>
                <mxCell id="8" value="templates" style="rounded=0;whiteSpace=wrap;html=1;" parent="1" vertex="1">
                    <mxGeometry x="160" y="200" width="80" height="40" as="geometry"/>
                </mxCell>
                <mxCell id="19" value="" style="edgeStyle=orthogonalEdgeStyle;html=1;" parent="1" source="18" target="8" edge="1">
                    <mxGeometry relative="1" as="geometry"/>
                </mxCell>
                <mxCell id="22" style="edgeStyle=orthogonalEdgeStyle;shape=link;html=1;exitX=0;exitY=0.5;exitDx=0;exitDy=0;entryX=1;entryY=0.5;entryDx=0;entryDy=0;" parent="1" source="18" target="21" edge="1">
                    <mxGeometry relative="1" as="geometry"/>
                </mxCell>
                <mxCell id="18" value="cards[]" style="rounded=0;whiteSpace=wrap;html=1;" parent="1" vertex="1">
                    <mxGeometry x="160" y="280" width="80" height="40" as="geometry"/>
                </mxCell>
                <mxCell id="21" value="Editor" style="shape=process;whiteSpace=wrap;html=1;backgroundOutline=1;" parent="1" vertex="1">
                    <mxGeometry x="40" y="280" width="80" height="40" as="geometry"/>
                </mxCell>
                <mxCell id="25" style="edgeStyle=orthogonalEdgeStyle;html=1;exitX=0.5;exitY=0;exitDx=0;exitDy=0;entryX=0.75;entryY=1;entryDx=0;entryDy=0;" parent="1" source="23" target="18" edge="1">
                    <mxGeometry relative="1" as="geometry"/>
                </mxCell>
                <mxCell id="23" value="modelTemplates" style="shape=trapezoid;perimeter=trapezoidPerimeter;whiteSpace=wrap;html=1;fixedSize=1;" parent="1" vertex="1">
                    <mxGeometry x="240" y="380" width="120" height="60" as="geometry"/>
                </mxCell>
                <mxCell id="28" style="edgeStyle=orthogonalEdgeStyle;html=1;exitX=0.5;exitY=0;exitDx=0;exitDy=0;entryX=0.25;entryY=1;entryDx=0;entryDy=0;" parent="1" source="27" target="18" edge="1">
                    <mxGeometry relative="1" as="geometry"/>
                </mxCell>
                <mxCell id="27" value="modelFieldNames" style="shape=trapezoid;perimeter=trapezoidPerimeter;whiteSpace=wrap;html=1;fixedSize=1;" parent="1" vertex="1">
                    <mxGeometry x="40" y="380" width="120" height="60" as="geometry"/>
                </mxCell>
                <mxCell id="30" style="edgeStyle=orthogonalEdgeStyle;html=1;exitX=1;exitY=0.5;exitDx=0;exitDy=0;entryX=0.5;entryY=1;entryDx=0;entryDy=0;" parent="1" source="29" target="23" edge="1">
                    <mxGeometry relative="1" as="geometry"/>
                </mxCell>
                <mxCell id="31" style="edgeStyle=orthogonalEdgeStyle;html=1;exitX=0;exitY=0.5;exitDx=0;exitDy=0;entryX=0.5;entryY=1;entryDx=0;entryDy=0;" parent="1" source="29" target="27" edge="1">
                    <mxGeometry relative="1" as="geometry"/>
                </mxCell>
                <mxCell id="29" value="modelName" style="rounded=0;whiteSpace=wrap;html=1;" parent="1" vertex="1">
                    <mxGeometry x="160" y="480" width="80" height="40" as="geometry"/>
                </mxCell>
                <mxCell id="35" style="edgeStyle=orthogonalEdgeStyle;html=1;exitX=0.5;exitY=0;exitDx=0;exitDy=0;entryX=0.5;entryY=1;entryDx=0;entryDy=0;" parent="1" source="33" target="7" edge="1">
                    <mxGeometry relative="1" as="geometry"/>
                </mxCell>
                <mxCell id="33" value="modelNames" style="shape=trapezoid;perimeter=trapezoidPerimeter;whiteSpace=wrap;html=1;fixedSize=1;" parent="1" vertex="1">
                    <mxGeometry x="380" y="660" width="120" height="60" as="geometry"/>
                </mxCell>
                <mxCell id="36" value="updateModelStyling" style="shape=trapezoid;perimeter=trapezoidPerimeter;whiteSpace=wrap;html=1;fixedSize=1;" parent="1" vertex="1">
                    <mxGeometry x="480" y="20" width="160" height="60" as="geometry"/>
                </mxCell>
                <mxCell id="49" style="edgeStyle=orthogonalEdgeStyle;html=1;exitX=0.5;exitY=0;exitDx=0;exitDy=0;entryX=0.5;entryY=1;entryDx=0;entryDy=0;" parent="1" source="37" target="36" edge="1">
                    <mxGeometry relative="1" as="geometry"/>
                </mxCell>
                <mxCell id="37" value="model" style="rounded=0;whiteSpace=wrap;html=1;" parent="1" vertex="1">
                    <mxGeometry x="520" y="120" width="80" height="40" as="geometry"/>
                </mxCell>
                <mxCell id="42" style="edgeStyle=orthogonalEdgeStyle;shape=link;html=1;exitX=1;exitY=0.5;exitDx=0;exitDy=0;entryX=0;entryY=0.5;entryDx=0;entryDy=0;" parent="1" source="40" target="41" edge="1">
                    <mxGeometry relative="1" as="geometry"/>
                </mxCell>
                <mxCell id="43" style="edgeStyle=orthogonalEdgeStyle;html=1;exitX=0.5;exitY=0;exitDx=0;exitDy=0;entryX=1;entryY=0.5;entryDx=0;entryDy=0;" parent="1" source="40" target="37" edge="1">
                    <mxGeometry relative="1" as="geometry"/>
                </mxCell>
                <mxCell id="40" value="css" style="rounded=0;whiteSpace=wrap;html=1;" parent="1" vertex="1">
                    <mxGeometry x="640" y="280" width="80" height="40" as="geometry"/>
                </mxCell>
                <mxCell id="41" value="Editor" style="shape=process;whiteSpace=wrap;html=1;backgroundOutline=1;" parent="1" vertex="1">
                    <mxGeometry x="760" y="280" width="80" height="40" as="geometry"/>
                </mxCell>
                <mxCell id="45" style="edgeStyle=orthogonalEdgeStyle;html=1;exitX=0.5;exitY=0;exitDx=0;exitDy=0;entryX=0.5;entryY=1;entryDx=0;entryDy=0;" parent="1" source="44" target="40" edge="1">
                    <mxGeometry relative="1" as="geometry"/>
                </mxCell>
                <mxCell id="44" value="modelStyling" style="shape=trapezoid;perimeter=trapezoidPerimeter;whiteSpace=wrap;html=1;fixedSize=1;" parent="1" vertex="1">
                    <mxGeometry x="620" y="384" width="120" height="60" as="geometry"/>
                </mxCell>
                <mxCell id="48" style="edgeStyle=orthogonalEdgeStyle;html=1;exitX=0.5;exitY=0;exitDx=0;exitDy=0;entryX=0.5;entryY=1;entryDx=0;entryDy=0;" parent="1" source="46" target="44" edge="1">
                    <mxGeometry relative="1" as="geometry"/>
                </mxCell>
                <mxCell id="46" value="modelName" style="rounded=0;whiteSpace=wrap;html=1;" parent="1" vertex="1">
                    <mxGeometry x="640" y="480" width="80" height="40" as="geometry"/>
                </mxCell>
            </root>
        </mxGraphModel>
    </diagram>
    <diagram id="8gbOZc8B69bz5Mnj_htM" name="Strona-2">
        <mxGraphModel dx="189" dy="790" grid="1" gridSize="10" guides="1" tooltips="1" connect="1" arrows="1" fold="1" page="1" pageScale="1" pageWidth="1169" pageHeight="827" math="0" shadow="0">
            <root>
                <mxCell id="TRQA0FHs6gA0zyz3V7M3-0"/>
                <mxCell id="TRQA0FHs6gA0zyz3V7M3-1" parent="TRQA0FHs6gA0zyz3V7M3-0"/>
                <mxCell id="TRQA0FHs6gA0zyz3V7M3-2" value="createModel" style="shape=trapezoid;perimeter=trapezoidPerimeter;whiteSpace=wrap;html=1;fixedSize=1;" parent="TRQA0FHs6gA0zyz3V7M3-1" vertex="1">
                    <mxGeometry x="1520" y="60" width="160" height="60" as="geometry"/>
                </mxCell>
                <mxCell id="TRQA0FHs6gA0zyz3V7M3-3" style="edgeStyle=orthogonalEdgeStyle;html=1;exitX=0.5;exitY=0;exitDx=0;exitDy=0;entryX=0;entryY=1;entryDx=0;entryDy=0;" parent="TRQA0FHs6gA0zyz3V7M3-1" source="TRQA0FHs6gA0zyz3V7M3-4" target="TRQA0FHs6gA0zyz3V7M3-2" edge="1">
                    <mxGeometry relative="1" as="geometry">
                        <Array as="points">
                            <mxPoint x="1360" y="160"/>
                            <mxPoint x="1520" y="160"/>
                        </Array>
                    </mxGeometry>
                </mxCell>
                <mxCell id="TRQA0FHs6gA0zyz3V7M3-4" value="modelName" style="rounded=0;whiteSpace=wrap;html=1;" parent="TRQA0FHs6gA0zyz3V7M3-1" vertex="1">
                    <mxGeometry x="1320" y="320" width="80" height="40" as="geometry"/>
                </mxCell>
                <mxCell id="TRQA0FHs6gA0zyz3V7M3-5" style="edgeStyle=orthogonalEdgeStyle;html=1;exitX=0.5;exitY=0;exitDx=0;exitDy=0;entryX=0.5;entryY=1;entryDx=0;entryDy=0;" parent="TRQA0FHs6gA0zyz3V7M3-1" source="TRQA0FHs6gA0zyz3V7M3-6" target="TRQA0FHs6gA0zyz3V7M3-2" edge="1">
                    <mxGeometry relative="1" as="geometry"/>
                </mxCell>
                <mxCell id="TRQA0FHs6gA0zyz3V7M3-6" value="inOrderFields" style="rounded=0;whiteSpace=wrap;html=1;" parent="TRQA0FHs6gA0zyz3V7M3-1" vertex="1">
                    <mxGeometry x="1540" y="320" width="120" height="40" as="geometry"/>
                </mxCell>
                <mxCell id="TRQA0FHs6gA0zyz3V7M3-7" style="edgeStyle=orthogonalEdgeStyle;html=1;exitX=0.5;exitY=0;exitDx=0;exitDy=0;entryX=0.75;entryY=1;entryDx=0;entryDy=0;" parent="TRQA0FHs6gA0zyz3V7M3-1" source="TRQA0FHs6gA0zyz3V7M3-8" target="TRQA0FHs6gA0zyz3V7M3-2" edge="1">
                    <mxGeometry relative="1" as="geometry"/>
                </mxCell>
                <mxCell id="TRQA0FHs6gA0zyz3V7M3-8" value="css" style="rounded=0;whiteSpace=wrap;html=1;" parent="TRQA0FHs6gA0zyz3V7M3-1" vertex="1">
                    <mxGeometry x="1720" y="320" width="80" height="40" as="geometry"/>
                </mxCell>
                <mxCell id="TRQA0FHs6gA0zyz3V7M3-9" style="edgeStyle=orthogonalEdgeStyle;html=1;exitX=0.5;exitY=0;exitDx=0;exitDy=0;entryX=0.25;entryY=1;entryDx=0;entryDy=0;" parent="TRQA0FHs6gA0zyz3V7M3-1" source="TRQA0FHs6gA0zyz3V7M3-10" target="TRQA0FHs6gA0zyz3V7M3-2" edge="1">
                    <mxGeometry relative="1" as="geometry">
                        <Array as="points">
                            <mxPoint x="1480" y="220"/>
                            <mxPoint x="1560" y="220"/>
                        </Array>
                    </mxGeometry>
                </mxCell>
                <mxCell id="TRQA0FHs6gA0zyz3V7M3-10" value="isCloze" style="rounded=0;whiteSpace=wrap;html=1;" parent="TRQA0FHs6gA0zyz3V7M3-1" vertex="1">
                    <mxGeometry x="1440" y="320" width="80" height="40" as="geometry"/>
                </mxCell>
                <mxCell id="TRQA0FHs6gA0zyz3V7M3-11" style="edgeStyle=orthogonalEdgeStyle;html=1;exitX=0.5;exitY=0;exitDx=0;exitDy=0;entryX=1;entryY=1;entryDx=0;entryDy=0;" parent="TRQA0FHs6gA0zyz3V7M3-1" source="TRQA0FHs6gA0zyz3V7M3-12" target="TRQA0FHs6gA0zyz3V7M3-2" edge="1">
                    <mxGeometry relative="1" as="geometry"/>
                </mxCell>
                <mxCell id="TRQA0FHs6gA0zyz3V7M3-12" value="cardTemplates[]" style="rounded=0;whiteSpace=wrap;html=1;" parent="TRQA0FHs6gA0zyz3V7M3-1" vertex="1">
                    <mxGeometry x="1940" y="200" width="120" height="40" as="geometry"/>
                </mxCell>
                <mxCell id="TRQA0FHs6gA0zyz3V7M3-13" style="edgeStyle=orthogonalEdgeStyle;html=1;exitX=0.5;exitY=0;exitDx=0;exitDy=0;exitPerimeter=0;entryX=0.5;entryY=1;entryDx=0;entryDy=0;" parent="TRQA0FHs6gA0zyz3V7M3-1" source="TRQA0FHs6gA0zyz3V7M3-14" target="TRQA0FHs6gA0zyz3V7M3-10" edge="1">
                    <mxGeometry relative="1" as="geometry"/>
                </mxCell>
                <mxCell id="TRQA0FHs6gA0zyz3V7M3-14" value="" style="shape=callout;whiteSpace=wrap;html=1;perimeter=calloutPerimeter;base=20;size=20;position=0.5;" parent="TRQA0FHs6gA0zyz3V7M3-1" vertex="1">
                    <mxGeometry x="1440" y="400" width="80" height="60" as="geometry"/>
                </mxCell>
                <mxCell id="TRQA0FHs6gA0zyz3V7M3-15" style="edgeStyle=orthogonalEdgeStyle;html=1;exitX=0.5;exitY=0;exitDx=0;exitDy=0;exitPerimeter=0;entryX=0.5;entryY=1;entryDx=0;entryDy=0;" parent="TRQA0FHs6gA0zyz3V7M3-1" source="TRQA0FHs6gA0zyz3V7M3-16" target="TRQA0FHs6gA0zyz3V7M3-4" edge="1">
                    <mxGeometry relative="1" as="geometry"/>
                </mxCell>
                <mxCell id="TRQA0FHs6gA0zyz3V7M3-16" value="" style="shape=callout;whiteSpace=wrap;html=1;perimeter=calloutPerimeter;size=20;position=0.5;" parent="TRQA0FHs6gA0zyz3V7M3-1" vertex="1">
                    <mxGeometry x="1320" y="400" width="80" height="60" as="geometry"/>
                </mxCell>
                <mxCell id="TRQA0FHs6gA0zyz3V7M3-17" style="edgeStyle=orthogonalEdgeStyle;html=1;exitX=0.5;exitY=0;exitDx=0;exitDy=0;entryX=0.25;entryY=1;entryDx=0;entryDy=0;" parent="TRQA0FHs6gA0zyz3V7M3-1" source="TRQA0FHs6gA0zyz3V7M3-18" target="TRQA0FHs6gA0zyz3V7M3-12" edge="1">
                    <mxGeometry relative="1" as="geometry"/>
                </mxCell>
                <mxCell id="TRQA0FHs6gA0zyz3V7M3-18" value="Name" style="rounded=0;whiteSpace=wrap;html=1;" parent="TRQA0FHs6gA0zyz3V7M3-1" vertex="1">
                    <mxGeometry x="1840" y="320" width="80" height="40" as="geometry"/>
                </mxCell>
                <mxCell id="TRQA0FHs6gA0zyz3V7M3-19" style="edgeStyle=orthogonalEdgeStyle;html=1;exitX=0.5;exitY=0;exitDx=0;exitDy=0;entryX=0.5;entryY=1;entryDx=0;entryDy=0;" parent="TRQA0FHs6gA0zyz3V7M3-1" source="TRQA0FHs6gA0zyz3V7M3-20" target="TRQA0FHs6gA0zyz3V7M3-12" edge="1">
                    <mxGeometry relative="1" as="geometry"/>
                </mxCell>
                <mxCell id="TRQA0FHs6gA0zyz3V7M3-20" value="Front" style="rounded=0;whiteSpace=wrap;html=1;" parent="TRQA0FHs6gA0zyz3V7M3-1" vertex="1">
                    <mxGeometry x="1960" y="320" width="80" height="40" as="geometry"/>
                </mxCell>
                <mxCell id="TRQA0FHs6gA0zyz3V7M3-21" style="edgeStyle=orthogonalEdgeStyle;html=1;exitX=0.5;exitY=0;exitDx=0;exitDy=0;entryX=0.75;entryY=1;entryDx=0;entryDy=0;" parent="TRQA0FHs6gA0zyz3V7M3-1" source="TRQA0FHs6gA0zyz3V7M3-22" target="TRQA0FHs6gA0zyz3V7M3-12" edge="1">
                    <mxGeometry relative="1" as="geometry"/>
                </mxCell>
                <mxCell id="TRQA0FHs6gA0zyz3V7M3-22" value="Back" style="rounded=0;whiteSpace=wrap;html=1;" parent="TRQA0FHs6gA0zyz3V7M3-1" vertex="1">
                    <mxGeometry x="2080" y="320" width="80" height="40" as="geometry"/>
                </mxCell>
                <mxCell id="TRQA0FHs6gA0zyz3V7M3-23" style="edgeStyle=orthogonalEdgeStyle;shape=link;html=1;exitX=1;exitY=0.5;exitDx=0;exitDy=0;entryX=0.5;entryY=1;entryDx=0;entryDy=0;" parent="TRQA0FHs6gA0zyz3V7M3-1" source="TRQA0FHs6gA0zyz3V7M3-25" target="TRQA0FHs6gA0zyz3V7M3-22" edge="1">
                    <mxGeometry relative="1" as="geometry"/>
                </mxCell>
                <mxCell id="TRQA0FHs6gA0zyz3V7M3-24" style="edgeStyle=orthogonalEdgeStyle;shape=link;html=1;exitX=0;exitY=0.5;exitDx=0;exitDy=0;entryX=0.5;entryY=1;entryDx=0;entryDy=0;" parent="TRQA0FHs6gA0zyz3V7M3-1" source="TRQA0FHs6gA0zyz3V7M3-25" target="TRQA0FHs6gA0zyz3V7M3-20" edge="1">
                    <mxGeometry relative="1" as="geometry"/>
                </mxCell>
                <mxCell id="TRQA0FHs6gA0zyz3V7M3-25" value="Editor" style="shape=process;whiteSpace=wrap;html=1;backgroundOutline=1;" parent="TRQA0FHs6gA0zyz3V7M3-1" vertex="1">
                    <mxGeometry x="2020" y="400" width="80" height="40" as="geometry"/>
                </mxCell>
                <mxCell id="TRQA0FHs6gA0zyz3V7M3-26" style="edgeStyle=orthogonalEdgeStyle;shape=link;html=1;exitX=0.5;exitY=0;exitDx=0;exitDy=0;entryX=0.5;entryY=1;entryDx=0;entryDy=0;" parent="TRQA0FHs6gA0zyz3V7M3-1" source="TRQA0FHs6gA0zyz3V7M3-27" target="TRQA0FHs6gA0zyz3V7M3-8" edge="1">
                    <mxGeometry relative="1" as="geometry"/>
                </mxCell>
                <mxCell id="TRQA0FHs6gA0zyz3V7M3-27" value="Editor" style="shape=process;whiteSpace=wrap;html=1;backgroundOutline=1;" parent="TRQA0FHs6gA0zyz3V7M3-1" vertex="1">
                    <mxGeometry x="1720" y="400" width="80" height="40" as="geometry"/>
                </mxCell>
            </root>
        </mxGraphModel>
    </diagram>
    <diagram id="Xz-XuzHa-J8gCabdGYaV" name="Strona-3">
        <mxGraphModel dx="1358" dy="790" grid="1" gridSize="10" guides="1" tooltips="1" connect="1" arrows="1" fold="1" page="1" pageScale="1" pageWidth="1169" pageHeight="827" math="0" shadow="0">
            <root>
                <mxCell id="2UEtpeX2S9XMdqNRUapQ-0"/>
                <mxCell id="2UEtpeX2S9XMdqNRUapQ-1" parent="2UEtpeX2S9XMdqNRUapQ-0"/>
                <mxCell id="2UEtpeX2S9XMdqNRUapQ-2" value="" style="shape=trapezoid;perimeter=trapezoidPerimeter;whiteSpace=wrap;html=1;fixedSize=1;" parent="2UEtpeX2S9XMdqNRUapQ-1" vertex="1">
                    <mxGeometry x="520" y="390" width="120" height="60" as="geometry"/>
                </mxCell>
                <mxCell id="2UEtpeX2S9XMdqNRUapQ-5" style="edgeStyle=orthogonalEdgeStyle;html=1;exitX=1;exitY=0.5;exitDx=0;exitDy=0;entryX=0;entryY=0.5;entryDx=0;entryDy=0;" parent="2UEtpeX2S9XMdqNRUapQ-1" source="2UEtpeX2S9XMdqNRUapQ-3" target="2UEtpeX2S9XMdqNRUapQ-2" edge="1">
                    <mxGeometry relative="1" as="geometry"/>
                </mxCell>
                <mxCell id="2UEtpeX2S9XMdqNRUapQ-3" value="version" style="rounded=0;whiteSpace=wrap;html=1;" parent="2UEtpeX2S9XMdqNRUapQ-1" vertex="1">
                    <mxGeometry x="360" y="400" width="80" height="40" as="geometry"/>
                </mxCell>
                <mxCell id="2UEtpeX2S9XMdqNRUapQ-7" style="edgeStyle=orthogonalEdgeStyle;html=1;exitX=0.5;exitY=0;exitDx=0;exitDy=0;entryX=0.5;entryY=1;entryDx=0;entryDy=0;" parent="2UEtpeX2S9XMdqNRUapQ-1" source="2UEtpeX2S9XMdqNRUapQ-6" target="2UEtpeX2S9XMdqNRUapQ-3" edge="1">
                    <mxGeometry relative="1" as="geometry"/>
                </mxCell>
                <mxCell id="2UEtpeX2S9XMdqNRUapQ-6" value="version" style="shape=trapezoid;perimeter=trapezoidPerimeter;whiteSpace=wrap;html=1;fixedSize=1;" parent="2UEtpeX2S9XMdqNRUapQ-1" vertex="1">
                    <mxGeometry x="340" y="500" width="120" height="60" as="geometry"/>
                </mxCell>
            </root>
        </mxGraphModel>
    </diagram>
</mxfile>